<svg xmlns="http://www.w3.org/2000/svg" width="905" height="600"><rect width="905" height="600" x="0" y="0" fill="#FFFFFF" id="background"/><g id="viz"><clipPath id="serieClipPath"><rect x="-50" y="-25" width="805" height="600"/></clipPath><g transform="translate(0,0)"><g transform="translate(50,25)" clip-path="url(#serieClipPath)"><g id="axis"><g transform="translate(0,550)" fill="none" font-size="10" font-family="sans-serif" text-anchor="middle"><path class="domain" stroke="currentColor" d="M0,6V0H740V6"/><g class="tick" opacity="1" transform="translate(0,0)"><line stroke="currentColor" y2="6"/><text fill="currentColor" y="9" dy="0.71em">March</text></g><g class="tick" opacity="1" transform="translate(105.71428571428571,0)"><line stroke="currentColor" y2="6"/><text fill="currentColor" y="9" dy="0.71em">Mar 08</text></g><g class="tick" opacity="1" transform="translate(211.42857142857142,0)"><line stroke="currentColor" y2="6"/><text fill="currentColor" y="9" dy="0.71em">Mar 15</text></g><g class="tick" opacity="1" transform="translate(317.1428571428571,0)"><line stroke="currentColor" y2="6"/><text fill="currentColor" y="9" dy="0.71em">Mar 22</text></g><g class="tick" opacity="1" transform="translate(422.85714285714283,0)"><line stroke="currentColor" y2="6"/><text fill="currentColor" y="9" dy="0.71em">Mar 29</text></g><g class="tick" opacity="1" transform="translate(528.5714285714286,0)"><line stroke="currentColor" y2="6"/><text fill="currentColor" y="9" dy="0.71em">Apr 05</text></g><g class="tick" opacity="1" transform="translate(634.2857142857142,0)"><line stroke="currentColor" y2="6"/><text fill="currentColor" y="9" dy="0.71em">Apr 12</text></g><g class="tick" opacity="1" transform="translate(740,0)"><line stroke="currentColor" y2="6"/><text fill="currentColor" y="9" dy="0.71em">Apr 19</text></g><text x="740" dy="-5" text-anchor="end" style="font-family: Arial, sans-serif; font-size: 12px; fill: rgb(123, 123, 123); font-weight: bold;">fecha</text></g><g transform="translate(0,0)" fill="none" font-size="10" font-family="sans-serif" text-anchor="end"><path class="domain" stroke="currentColor" d="M0,550V0"/><g class="tick" opacity="1" transform="translate(0,550)"><line stroke="currentColor" x2="-6"/><text fill="currentColor" x="-9" dy="0.32em">8</text></g><g class="tick" opacity="1" transform="translate(0,481.25)"><line stroke="currentColor" x2="-6"/><text fill="currentColor" x="-9" dy="0.32em">10</text></g><g class="tick" opacity="1" transform="translate(0,412.5)"><line stroke="currentColor" x2="-6"/><text fill="currentColor" x="-9" dy="0.32em">12</text></g><g class="tick" opacity="1" transform="translate(0,343.75)"><line stroke="currentColor" x2="-6"/><text fill="currentColor" x="-9" dy="0.32em">14</text></g><g class="tick" opacity="1" transform="translate(0,275)"><line stroke="currentColor" x2="-6"/><text fill="currentColor" x="-9" dy="0.32em">16</text></g><g class="tick" opacity="1" transform="translate(0,206.25)"><line stroke="currentColor" x2="-6"/><text fill="currentColor" x="-9" dy="0.32em">18</text></g><g class="tick" opacity="1" transform="translate(0,137.5)"><line stroke="currentColor" x2="-6"/><text fill="currentColor" x="-9" dy="0.32em">20</text></g><g class="tick" opacity="1" transform="translate(0,68.75)"><line stroke="currentColor" x2="-6"/><text fill="currentColor" x="-9" dy="0.32em">22</text></g><g class="tick" opacity="1" transform="translate(0,0)"><line stroke="currentColor" x2="-6"/><text fill="currentColor" x="-9" dy="0.32em">24</text></g><text x="4" text-anchor="start" dominant-baseline="hanging" style="font-family: Arial, sans-serif; font-size: 12px; fill: rgb(123, 123, 123); font-weight: bold;">hora</text></g></g><g id="viz"><g id="Almuerzo"><path d="M15.102040816326529,309.375C20.136054421768705,360.9375,25.17006802721088,412.5,30.204081632653057,412.5C35.238095238095234,412.5,40.27210884353742,378.125,45.30612244897959,378.125C50.34013605442177,378.125,55.37414965986394,412.5,60.408163265306115,412.5C65.4421768707483,412.5,70.47619047619047,360.9375,75.51020408163265,343.75C80.54421768707483,326.5625,85.578231292517,309.375,90.61224489795919,309.375C95.64625850340136,309.375,100.68027210884354,309.375,105.71428571428571,309.375C110.74829931972788,309.375,115.78231292517006,332.2916666666667,120.81632653061223,343.75C125.85034013605441,355.20833333333337,130.8843537414966,378.125,135.9183673469388,378.125C140.95238095238096,378.125,145.98639455782313,275,151.0204081632653,275C156.05442176870747,275,161.08843537414967,389.5833333333333,166.12244897959184,412.5C171.156462585034,435.4166666666667,176.1904761904762,446.875,181.22448979591837,446.875C186.25850340136054,446.875,191.29251700680274,378.125,196.3265306122449,378.125C201.36054421768708,378.125,206.39455782312925,378.125,211.42857142857142,378.125C216.46258503401359,378.125,221.49659863945578,343.75,226.53061224489795,343.75C231.56462585034012,343.75,236.5986394557823,412.5,241.63265306122446,412.5C246.66666666666666,412.5,251.70068027210883,378.125,256.734693877551,378.125C261.7687074829932,378.125,266.8027210884354,412.5,271.8367346938776,412.5C307.07482993197283,412.5,342.312925170068,412.5,377.55102040816325,412.5C382.5850340136054,412.5,387.61904761904765,389.58333333333337,392.6530612244898,378.125C397.687074829932,366.6666666666667,402.7210884353741,343.75,407.75510204081627,343.75C412.78911564625844,343.75,417.82312925170066,378.125,422.85714285714283,378.125C427.891156462585,378.125,432.9251700680272,343.75,437.9591836734694,343.75C442.99319727891157,343.75,448.02721088435374,412.5,453.0612244897959,412.5C458.0952380952381,412.5,463.1292517006803,343.75,468.16326530612247,343.75C493.33333333333337,343.75,518.5034013605443,343.75,543.6734693877552,343.75C548.7074829931973,343.75,553.7414965986394,378.125,558.7755102040816,378.125C563.8095238095237,378.125,568.843537414966,343.75,573.8775510204082,343.75C578.9115646258504,343.75,583.9455782312925,378.125,588.9795918367347,378.125C594.0136054421769,378.125,599.047619047619,378.125,604.0816326530612,378.125C609.1156462585034,378.125,614.1496598639457,378.125,619.1836734693878,378.125C624.21768707483,378.125,629.251700680272,378.125,634.2857142857142,378.125C639.3197278911564,378.125,644.3537414965987,378.125,649.3877551020408,378.125C654.421768707483,378.125,659.4557823129252,412.5,664.4897959183673,412.5C669.5238095238095,412.5,674.5578231292517,395.3125,679.5918367346939,378.125" stroke="#1f77b4" fill="none"/><g><circle class="dot" cx="15.102040816326529" cy="309.375" r="2" fill="#1f77b4"/><circle class="dot" cx="30.204081632653057" cy="412.5" r="2" fill="#1f77b4"/><circle class="dot" cx="45.30612244897959" cy="378.125" r="2" fill="#1f77b4"/><circle class="dot" cx="60.408163265306115" cy="412.5" r="2" fill="#1f77b4"/><circle class="dot" cx="75.51020408163265" cy="343.75" r="2" fill="#1f77b4"/><circle class="dot" cx="90.61224489795919" cy="309.375" r="2" fill="#1f77b4"/><circle class="dot" cx="105.71428571428571" cy="309.375" r="2" fill="#1f77b4"/><circle class="dot" cx="120.81632653061223" cy="343.75" r="2" fill="#1f77b4"/><circle class="dot" cx="135.9183673469388" cy="378.125" r="2" fill="#1f77b4"/><circle class="dot" cx="151.0204081632653" cy="275" r="2" fill="#1f77b4"/><circle class="dot" cx="166.12244897959184" cy="412.5" r="2" fill="#1f77b4"/><circle class="dot" cx="181.22448979591837" cy="446.875" r="2" fill="#1f77b4"/><circle class="dot" cx="196.3265306122449" cy="378.125" r="2" fill="#1f77b4"/><circle class="dot" cx="211.42857142857142" cy="378.125" r="2" fill="#1f77b4"/><circle class="dot" cx="226.53061224489795" cy="343.75" r="2" fill="#1f77b4"/><circle class="dot" cx="241.63265306122446" cy="412.5" r="2" fill="#1f77b4"/><circle class="dot" cx="256.734693877551" cy="378.125" r="2" fill="#1f77b4"/><circle class="dot" cx="271.8367346938776" cy="412.5" r="2" fill="#1f77b4"/><circle class="dot" cx="377.55102040816325" cy="412.5" r="2" fill="#1f77b4"/><circle class="dot" cx="392.6530612244898" cy="378.125" r="2" fill="#1f77b4"/><circle class="dot" cx="407.75510204081627" cy="343.75" r="2" fill="#1f77b4"/><circle class="dot" cx="422.85714285714283" cy="378.125" r="2" fill="#1f77b4"/><circle class="dot" cx="437.9591836734694" cy="343.75" r="2" fill="#1f77b4"/><circle class="dot" cx="453.0612244897959" cy="412.5" r="2" fill="#1f77b4"/><circle class="dot" cx="468.16326530612247" cy="343.75" r="2" fill="#1f77b4"/><circle class="dot" cx="543.6734693877552" cy="343.75" r="2" fill="#1f77b4"/><circle class="dot" cx="558.7755102040816" cy="378.125" r="2" fill="#1f77b4"/><circle class="dot" cx="573.8775510204082" cy="343.75" r="2" fill="#1f77b4"/><circle class="dot" cx="588.9795918367347" cy="378.125" r="2" fill="#1f77b4"/><circle class="dot" cx="604.0816326530612" cy="378.125" r="2" fill="#1f77b4"/><circle class="dot" cx="619.1836734693878" cy="378.125" r="2" fill="#1f77b4"/><circle class="dot" cx="634.2857142857142" cy="378.125" r="2" fill="#1f77b4"/><circle class="dot" cx="649.3877551020408" cy="378.125" r="2" fill="#1f77b4"/><circle class="dot" cx="664.4897959183673" cy="412.5" r="2" fill="#1f77b4"/><circle class="dot" cx="679.5918367346939" cy="378.125" r="2" fill="#1f77b4"/></g><text font-family="sans-serif" font-size="10" class="labels" x="679.5918367346939" y="378.125" dx="5" dy="4" text-anchor="start">Almuerzo</text></g><g id="Cena"><path d="M15.102040816326529,68.75C20.136054421768705,103.125,25.17006802721088,137.5,30.204081632653057,137.5C35.238095238095234,137.5,40.27210884353742,68.75,45.30612244897959,68.75C50.34013605442177,68.75,55.37414965986394,171.875,60.408163265306115,171.875C65.4421768707483,171.875,70.47619047619047,68.75,75.51020408163265,68.75C80.54421768707483,68.75,85.578231292517,137.5,90.61224489795919,137.5C95.64625850340136,137.5,100.68027210884354,85.9375,105.71428571428571,68.75C110.74829931972788,51.5625,115.78231292517006,34.375,120.81632653061223,34.375C125.85034013605441,34.375,130.8843537414966,137.5,135.9183673469388,137.5C140.95238095238096,137.5,145.98639455782313,137.5,151.0204081632653,137.5C156.05442176870747,137.5,161.08843537414967,137.5,166.12244897959184,137.5C171.156462585034,137.5,176.1904761904762,137.5,181.22448979591837,137.5C186.25850340136054,137.5,191.29251700680274,171.875,196.3265306122449,171.875C201.36054421768708,171.875,206.39455782312925,126.04166666666664,211.42857142857142,103.125C216.46258503401359,80.20833333333331,221.49659863945578,34.375,226.53061224489795,34.375C231.56462585034012,34.375,236.5986394557823,68.75,241.63265306122446,68.75C246.66666666666666,68.75,251.70068027210883,34.375,256.734693877551,34.375C297.00680272108843,34.375,337.27891156462584,103.125,377.55102040816325,103.125C382.5850340136054,103.125,387.61904761904765,34.375,392.6530612244898,34.375C397.687074829932,34.375,402.7210884353741,34.375,407.75510204081627,34.375C412.78911564625844,34.375,417.82312925170066,103.125,422.85714285714283,103.125C427.891156462585,103.125,432.9251700680272,34.375,437.9591836734694,34.375C442.99319727891157,34.375,448.02721088435374,137.5,453.0612244897959,137.5C483.265306122449,137.5,513.469387755102,68.75,543.6734693877552,68.75C548.7074829931973,68.75,553.7414965986394,103.125,558.7755102040816,103.125C568.8435374149659,103.125,578.9115646258504,103.125,588.9795918367347,103.125C594.0136054421769,103.125,599.047619047619,68.75,604.0816326530612,68.75C609.1156462585034,68.75,614.1496598639457,103.125,619.1836734693878,103.125C629.2517006802722,103.125,639.3197278911565,68.75,649.3877551020408,68.75C654.421768707483,68.75,659.4557823129252,103.125,664.4897959183673,137.5" stroke="#ff7f0e" fill="none"/><g><circle class="dot" cx="15.102040816326529" cy="68.75" r="2" fill="#ff7f0e"/><circle class="dot" cx="30.204081632653057" cy="137.5" r="2" fill="#ff7f0e"/><circle class="dot" cx="45.30612244897959" cy="68.75" r="2" fill="#ff7f0e"/><circle class="dot" cx="60.408163265306115" cy="171.875" r="2" fill="#ff7f0e"/><circle class="dot" cx="75.51020408163265" cy="68.75" r="2" fill="#ff7f0e"/><circle class="dot" cx="90.61224489795919" cy="137.5" r="2" fill="#ff7f0e"/><circle class="dot" cx="105.71428571428571" cy="68.75" r="2" fill="#ff7f0e"/><circle class="dot" cx="120.81632653061223" cy="34.375" r="2" fill="#ff7f0e"/><circle class="dot" cx="135.9183673469388" cy="137.5" r="2" fill="#ff7f0e"/><circle class="dot" cx="151.0204081632653" cy="137.5" r="2" fill="#ff7f0e"/><circle class="dot" cx="166.12244897959184" cy="137.5" r="2" fill="#ff7f0e"/><circle class="dot" cx="181.22448979591837" cy="137.5" r="2" fill="#ff7f0e"/><circle class="dot" cx="196.3265306122449" cy="171.875" r="2" fill="#ff7f0e"/><circle class="dot" cx="211.42857142857142" cy="103.125" r="2" fill="#ff7f0e"/><circle class="dot" cx="226.53061224489795" cy="34.375" r="2" fill="#ff7f0e"/><circle class="dot" cx="241.63265306122446" cy="68.75" r="2" fill="#ff7f0e"/><circle class="dot" cx="256.734693877551" cy="34.375" r="2" fill="#ff7f0e"/><circle class="dot" cx="377.55102040816325" cy="103.125" r="2" fill="#ff7f0e"/><circle class="dot" cx="392.6530612244898" cy="34.375" r="2" fill="#ff7f0e"/><circle class="dot" cx="407.75510204081627" cy="34.375" r="2" fill="#ff7f0e"/><circle class="dot" cx="422.85714285714283" cy="103.125" r="2" fill="#ff7f0e"/><circle class="dot" cx="437.9591836734694" cy="34.375" r="2" fill="#ff7f0e"/><circle class="dot" cx="453.0612244897959" cy="137.5" r="2" fill="#ff7f0e"/><circle class="dot" cx="543.6734693877552" cy="68.75" r="2" fill="#ff7f0e"/><circle class="dot" cx="558.7755102040816" cy="103.125" r="2" fill="#ff7f0e"/><circle class="dot" cx="588.9795918367347" cy="103.125" r="2" fill="#ff7f0e"/><circle class="dot" cx="604.0816326530612" cy="68.75" r="2" fill="#ff7f0e"/><circle class="dot" cx="619.1836734693878" cy="103.125" r="2" fill="#ff7f0e"/><circle class="dot" cx="649.3877551020408" cy="68.75" r="2" fill="#ff7f0e"/><circle class="dot" cx="664.4897959183673" cy="137.5" r="2" fill="#ff7f0e"/></g><text font-family="sans-serif" font-size="10" class="labels" x="664.4897959183673" y="137.5" dx="5" dy="4" text-anchor="start">Cena</text></g><g id="Desayuno"><path d="M45.30612244897959,515.625C55.374149659863946,504.1666666666667,65.4421768707483,492.7083333333333,75.51020408163265,481.25C85.578231292517,469.7916666666667,95.64625850340136,446.875,105.71428571428571,446.875C120.81632653061224,446.875,135.91836734693877,511.58088235294116,151.0204081632653,515.625C236.5986394557823,538.5416666666666,322.1768707482993,550,407.75510204081627,550C412.78911564625844,550,417.82312925170066,446.875,422.85714285714283,446.875C508.4353741496598,446.875,594.0136054421769,481.25,679.5918367346939,515.625" stroke="#2ca02c" fill="none"/><g><circle class="dot" cx="45.30612244897959" cy="515.625" r="2" fill="#2ca02c"/><circle class="dot" cx="75.51020408163265" cy="481.25" r="2" fill="#2ca02c"/><circle class="dot" cx="105.71428571428571" cy="446.875" r="2" fill="#2ca02c"/><circle class="dot" cx="151.0204081632653" cy="515.625" r="2" fill="#2ca02c"/><circle class="dot" cx="407.75510204081627" cy="550" r="2" fill="#2ca02c"/><circle class="dot" cx="422.85714285714283" cy="446.875" r="2" fill="#2ca02c"/><circle class="dot" cx="679.5918367346939" cy="515.625" r="2" fill="#2ca02c"/></g><text font-family="sans-serif" font-size="10" class="labels" x="679.5918367346939" y="515.625" dx="5" dy="4" text-anchor="start">Desayuno</text></g><g id="Merienda"><path d="M60.408163265306115,275C80.54421768707482,257.8125,100.68027210884352,240.625,120.81632653061223,171.875C125.85034013605441,154.68749999999997,130.8843537414966,103.125,135.9183673469388,103.125C145.98639455782313,103.125,156.0544217687075,275,166.12244897959184,275C176.1904761904762,275,186.25850340136054,275,196.3265306122449,275C201.36054421768708,275,206.39455782312925,275,211.42857142857142,275C216.46258503401359,275,221.49659863945578,183.33333333333334,226.53061224489795,171.875C236.59863945578232,148.95833333333334,246.66666666666666,137.5,256.734693877551,137.5C261.7687074829932,137.5,266.8027210884354,275,271.8367346938776,275C312.108843537415,275,352.3809523809524,206.25,392.6530612244898,206.25C397.687074829932,206.25,402.7210884353741,206.25,407.75510204081627,206.25C468.1632653061224,206.25,528.5714285714286,275,588.9795918367347,275C609.1156462585034,275,629.2517006802722,240.625,649.3877551020408,240.625C654.421768707483,240.625,659.4557823129252,257.8125,664.4897959183673,275" stroke="#d62728" fill="none"/><g><circle class="dot" cx="60.408163265306115" cy="275" r="2" fill="#d62728"/><circle class="dot" cx="120.81632653061223" cy="171.875" r="2" fill="#d62728"/><circle class="dot" cx="135.9183673469388" cy="103.125" r="2" fill="#d62728"/><circle class="dot" cx="166.12244897959184" cy="275" r="2" fill="#d62728"/><circle class="dot" cx="196.3265306122449" cy="275" r="2" fill="#d62728"/><circle class="dot" cx="211.42857142857142" cy="275" r="2" fill="#d62728"/><circle class="dot" cx="226.53061224489795" cy="171.875" r="2" fill="#d62728"/><circle class="dot" cx="256.734693877551" cy="137.5" r="2" fill="#d62728"/><circle class="dot" cx="271.8367346938776" cy="275" r="2" fill="#d62728"/><circle class="dot" cx="392.6530612244898" cy="206.25" r="2" fill="#d62728"/><circle class="dot" cx="407.75510204081627" cy="206.25" r="2" fill="#d62728"/><circle class="dot" cx="588.9795918367347" cy="275" r="2" fill="#d62728"/><circle class="dot" cx="649.3877551020408" cy="240.625" r="2" fill="#d62728"/><circle class="dot" cx="664.4897959183673" cy="275" r="2" fill="#d62728"/></g><text font-family="sans-serif" font-size="10" class="labels" x="664.4897959183673" y="275" dx="5" dy="4" text-anchor="start">Merienda</text></g></g></g><text y="4" x="4" style="font-family: Arial, sans-serif; font-size: 12px; fill: black; font-weight: bold; dominant-baseline: hanging;"/></g><g id="grid"><rect x="0" y="0" width="805" height="600" fill="none" stroke="#ccc"/></g></g><g id="legend" transform="translate(805,25)"><g transform="translate(5,0)"><g class="legendColor" transform="translate(0,0)"><g class="legendCells" transform="translate(0,31.599998474121094)"><g class="cell" transform="translate(0, 0)"><rect class="swatch" height="15" width="15" style="fill: rgb(31, 119, 180);"/><text class="label" transform="translate( 20, 12.5)" font-family="&quot;Arial&quot;, sans-serif" font-size="10px"><tspan x="0" dy="0em">Almuerzo</tspan></text></g><g class="cell" transform="translate(0, 21)"><rect class="swatch" height="15" width="15" style="fill: rgb(255, 127, 14);"/><text class="label" transform="translate( 20, 12.5)" font-family="&quot;Arial&quot;, sans-serif" font-size="10px"><tspan x="0" dy="0em">Cena</tspan></text></g><g class="cell" transform="translate(0, 42)"><rect class="swatch" height="15" width="15" style="fill: rgb(44, 160, 44);"/><text class="label" transform="translate( 20, 12.5)" font-family="&quot;Arial&quot;, sans-serif" font-size="10px"><tspan x="0" dy="0em">Desayuno</tspan></text></g><g class="cell" transform="translate(0, 63)"><rect class="swatch" height="15" width="15" style="fill: rgb(214, 39, 40);"/><text class="label" transform="translate( 20, 12.5)" font-family="&quot;Arial&quot;, sans-serif" font-size="10px"><tspan x="0" dy="0em">Merienda</tspan></text></g></g><text class="legendTitle" font-family="&quot;Arial&quot;, sans-serif" font-size="12px" font-weight="bold"><tspan x="0" dy="0em">tipo de</tspan><tspan x="0" dy="1.2em">comida</tspan></text></g></g></g></svg>